# xmcd
#
# Track frame offsets: 
#        150
#        29327
#        59154
#        83430
#        110634
#        128968
#        157311
#        183982
#        209177
#        232161
#        246263
#        266155
#        300630
#
# Disc length: 4321 seconds
#
# Revision: 2
# Processed by: cddbd v1.5.2PL0 Copyright (c) Steve Scherf et al.
# Submitted via: ExactAudioCopyFreeDBPlugin 1.0
#
DISCID=c910df0d
DTITLE=Jazz magazine - Jazz magazine n 33
DYEAR=2005
DGENRE=Jazz
TTITLE0=01 Arild Arnesen - The big lie
TTITLE1=02 Dizzy Gillespie - On green dolphin street (extrat)
TTITLE2=03 Grand Panoramax feat. Jojo Mayer - Starlite
TTITLE3=04 Tiziano Tononi and the ornettians - Feet music
TTITLE4=05 Melissa Stott - Suspicion
TTITLE5=06 Alberto Bonacasa-Dilene Ferraz - Istante pra eternar
TTITLE6=07 Renovation unlimited - Antonata feat. Roy Ayers
TTITLE7=08 Cal Trio - Lei e il gatto
TTITLE8=09Cosmosamantics - Telergy
TTITLE9=10 Tales on tones trio - Sabari
TTITLE10=11 Michele Asolese - Mangroove
TTITLE11=12 Marcus Miller - Moonlight sonata
TTITLE12=13 Alessandro Bravo - The eternal travel of sounds
EXTD=YEAR: 2005
EXTT0=
EXTT1=
EXTT2=
EXTT3=
EXTT4=
EXTT5=
EXTT6=
EXTT7=
EXTT8=
EXTT9=
EXTT10=
EXTT11=
EXTT12=
PLAYORDER=
